<?xml version="1.0" encoding="UTF-8"?>
<svg version="1.1" xmlns="http://www.w3.org/2000/svg" width="57" height="60">
<path d="M0 0 C18.81 0 37.62 0 57 0 C57 19.8 57 39.6 57 60 C38.19 60 19.38 60 0 60 C0 40.2 0 20.4 0 0 Z " fill="#0C140F" transform="translate(0,0)"/>
<path d="M0 0 C10.73953078 -0.68794147 10.73953078 -0.68794147 14.625 1.75 C16.94013421 3.94328504 17.77626111 4.8676555 18 8 C18.99 7.67 19.98 7.34 21 7 C23.22818441 6.93062938 25.45834524 6.91542916 27.6875 6.9375 C29.45673828 6.95103516 29.45673828 6.95103516 31.26171875 6.96484375 C32.16535156 6.97644531 33.06898437 6.98804688 34 7 C33.234375 11.78125 33.234375 11.78125 31.125 13.75 C27.03705506 16.15467349 23.65220141 16.08777739 19 16 C19 18.64 19 21.28 19 24 C19.7425 24.226875 20.485 24.45375 21.25 24.6875 C24.5840064 26.27873033 26.01256359 27.90843224 28 31 C28 32.32 28 33.64 28 35 C20.41 35 12.82 35 5 35 C6 28 6 28 8.375 25.5625 C11 24 11 24 14 24 C14 19.05 14 14.1 14 9 C12.618125 9.103125 11.23625 9.20625 9.8125 9.3125 C5.98502684 9.31853702 5.18058115 9.13267187 1.9375 6.75 C0 4 0 4 0 0 Z " fill="#92CC51" transform="translate(12,10)"/>
<path d="M0 0 C0.33 0 0.66 0 1 0 C1 4.95 1 9.9 1 15 C1.99 15 2.98 15 4 15 C4 12.03 4 9.06 4 6 C6.64 6 9.28 6 12 6 C12 6.33 12 6.66 12 7 C9.69 7 7.38 7 5 7 C5 9.64 5 12.28 5 15 C5.7425 15.226875 6.485 15.45375 7.25 15.6875 C10.5840064 17.27873033 12.01256359 18.90843224 14 22 C14 23.32 14 24.64 14 26 C6.41 26 -1.18 26 -9 26 C-8 19 -8 19 -5.625 16.5625 C-3 15 -3 15 0 15 C0 10.05 0 5.1 0 0 Z " fill="#9E6A66" transform="translate(26,19)"/>
<path d="M0 0 C0.33 0 0.66 0 1 0 C1 4.95 1 9.9 1 15 C1.99 15 2.98 15 4 15 C4 12.03 4 9.06 4 6 C6.64 6 9.28 6 12 6 C12 6.33 12 6.66 12 7 C9.69 7 7.38 7 5 7 C5 9.64 5 12.28 5 15 C5.66 15.33 6.32 15.66 7 16 C6.113125 16.53625 5.22625 17.0725 4.3125 17.625 C1.83258021 19.24335141 0.20158584 20.87915852 -1.5625 23.25 C-4 26 -4 26 -6.8125 26.375 C-7.534375 26.25125 -8.25625 26.1275 -9 26 C-8.75675684 21.7837853 -8.62862242 19.64516511 -5.625 16.5625 C-3 15 -3 15 0 15 C0 10.05 0 5.1 0 0 Z " fill="#735D48" transform="translate(26,19)"/>
<path d="M0 0 C2.3828125 -0.29296875 2.3828125 -0.29296875 5.125 -0.1875 C6.03507812 -0.16042969 6.94515625 -0.13335938 7.8828125 -0.10546875 C8.58148438 -0.07066406 9.28015625 -0.03585938 10 0 C9.25 4.75 9.25 4.75 7 7 C4.6171875 7.1953125 4.6171875 7.1953125 1.875 7.125 C0.50988281 7.09792969 0.50988281 7.09792969 -0.8828125 7.0703125 C-1.58148438 7.04710937 -2.28015625 7.02390625 -3 7 C-2.38722388 4.03824877 -1.74627478 2.61941217 0 0 Z " fill="#A6E257" transform="translate(36,17)"/>
<path d="M0 0 C4.6603705 -0.36551926 7.95142865 -0.62058305 12.0625 1.8125 C14 4 14 4 14 7 C11.03 7 8.06 7 5 7 C5 6.34 5 5.68 5 5 C4.01 4.67 3.02 4.34 2 4 C0.8125 1.9375 0.8125 1.9375 0 0 Z " fill="#AEE54E" transform="translate(16,11)"/>
<path d="M0 0 C3.63 0 7.26 0 11 0 C11 0.33 11 0.66 11 1 C9.02 1.33 7.04 1.66 5 2 C5.66 2.598125 6.32 3.19625 7 3.8125 C9 6 9 6 9 9 C3.53164557 8.51392405 3.53164557 8.51392405 1.125 6.1875 C0 4 0 4 0 0 Z " fill="#84BA37" transform="translate(12,10)"/>
<path d="M0 0 C0.99 0.33 1.98 0.66 3 1 C0.68462045 4.72114571 -1.28579473 7.61229661 -5 10 C-5.8125 8.3125 -5.8125 8.3125 -6 6 C-3.625 3.3125 -3.625 3.3125 -1 1 C-0.67 0.67 -0.34 0.34 0 0 Z " fill="#744C44" transform="translate(23,34)"/>
<path d="M0 0 C2.64 0 5.28 0 8 0 C8 0.33 8 0.66 8 1 C5.69 1 3.38 1 1 1 C1 3.64 1 6.28 1 9 C1.66 9.33 2.32 9.66 3 10 C-2.75 13.875 -2.75 13.875 -5 15 C-3.84826645 12.53199953 -2.95216435 10.95216435 -1 9 C-0.53993654 6.79749008 -0.53993654 6.79749008 -0.375 4.375 C-0.26285156 3.14910156 -0.26285156 3.14910156 -0.1484375 1.8984375 C-0.09945313 1.27195312 -0.05046875 0.64546875 0 0 Z " fill="#665F41" transform="translate(30,25)"/>
<path d="M0 0 C0.66 0.33 1.32 0.66 2 1 C2 2.32 2 3.64 2 5 C-4.0546875 5.1953125 -4.0546875 5.1953125 -6 5 C-6.66 4.34 -7.32 3.68 -8 3 C-6.68 2.34 -5.36 1.68 -4 1 C-3.67 1.99 -3.34 2.98 -3 4 C-2.01 4 -1.02 4 0 4 C0 2.68 0 1.36 0 0 Z " fill="#A57272" transform="translate(38,40)"/>
</svg>
